<svg width="53" height="118" viewBox="0 0 53 118" fill="none" xmlns="http://www.w3.org/2000/svg">
<path fill-rule="evenodd" clip-rule="evenodd" d="M0 55.9631V87.4074C0 99.4758 9.74611 109.259 21.7684 109.259C33.7908 109.259 43.5369 99.4758 43.5369 87.4074V67.6735L28.299 63.575V87.4074C28.299 91.028 25.3752 93.963 21.7684 93.963C18.1617 93.963 15.2379 91.028 15.2379 87.4074V60.0619L0 55.9631Z" fill="#F9F4E8"/>
<path fill-rule="evenodd" clip-rule="evenodd" d="M0 21.8519C0 9.78345 9.74611 0 21.7684 0C33.7908 0 43.5369 9.78345 43.5369 21.8519V54.1001L28.299 50.0013V21.8519C28.299 18.2313 25.3752 15.2963 21.7684 15.2963C18.1617 15.2963 15.2379 18.2313 15.2379 21.8519V46.4883L0 42.3897V21.8519Z" fill="#F9F4E8"/>
<path d="M39.1832 111.444C39.1832 107.824 42.107 104.889 45.7137 104.889C49.3205 104.889 52.2443 107.824 52.2443 111.444C52.2443 115.065 49.3205 118 45.7137 118C42.107 118 39.1832 115.065 39.1832 111.444Z" fill="#F9F4E8"/>
</svg>
